<svg width="24" height="28" fill="none" xmlns="http://www.w3.org/2000/svg"><path fill-rule="evenodd" clip-rule="evenodd" d="M15.383 0H3.256A2.335 2.335 0 0 0 .924 2.332v23.321a2.335 2.335 0 0 0 2.332 2.332h11.66v-.834a10.603 10.603 0 0 1 1.788-5.903.467.467 0 0 0-.058-.589l-3.265-3.265a1.513 1.513 0 0 1 .11-2.239 1.571 1.571 0 0 1 2.09.161l4.603 4.604.66-.66-3.129-3.129V2.332A2.335 2.335 0 0 0 15.383 0Zm1.4 15.199-.543-.543a2.51 2.51 0 0 0-3.342-.221 2.446 2.446 0 0 0-.177 3.619l3 2.999a11.532 11.532 0 0 0-1.734 6H3.257a1.4 1.4 0 0 1-1.4-1.4v-1.4h11.66v-.932H1.858V3.73h14.925V15.2ZM1.856 2.799h14.925v-.467a1.4 1.4 0 0 0-1.399-1.4H3.256a1.4 1.4 0 0 0-1.399 1.4V2.8Zm17.234 8.051-.63.688 2.861 2.622a3.273 3.273 0 0 1 1.058 2.407v11.418h.932V16.567a4.209 4.209 0 0 0-1.36-3.095L19.09 10.85ZM3.723 8.396h1.865a.933.933 0 0 0 .933-.933V5.597a.933.933 0 0 0-.933-.933H3.723a.933.933 0 0 0-.933.933v1.866c0 .515.418.933.933.933Zm0-2.799h1.865v1.866H3.723V5.597Zm6.53 2.799H8.387a.933.933 0 0 1-.933-.933V5.597c0-.515.418-.933.933-.933h1.866c.515 0 .932.418.932.933v1.866a.933.933 0 0 1-.932.933Zm0-2.799H8.387v1.866h1.866V5.597Zm2.798 2.799h1.866a.933.933 0 0 0 .933-.933V5.597a.933.933 0 0 0-.933-.933H13.05a.933.933 0 0 0-.933.933v1.866c0 .515.418.933.933.933Zm0-2.799h1.866v1.866H13.05V5.597ZM5.588 13.06H3.723a.933.933 0 0 1-.933-.933V10.26c0-.515.418-.933.933-.933h1.865c.516 0 .933.418.933.933v1.866a.933.933 0 0 1-.933.933Zm0-2.799H3.723v1.866h1.865V10.26Zm-1.865 7.463h1.865a.933.933 0 0 0 .933-.933v-1.866a.933.933 0 0 0-.933-.933H3.723a.933.933 0 0 0-.933.933v1.866c0 .515.418.933.933.933Zm0-2.799h1.865v1.866H3.723v-1.866Zm6.53-1.865H8.387a.933.933 0 0 1-.933-.933V10.26c0-.515.418-.933.933-.933h1.866c.515 0 .932.418.932.933v1.866a.933.933 0 0 1-.932.933Zm0-2.799H8.387v1.866h1.866V10.26Zm2.798 2.799h1.866a.933.933 0 0 0 .933-.933V10.26a.933.933 0 0 0-.933-.933H13.05a.933.933 0 0 0-.933.933v1.866c0 .515.418.933.933.933Zm0-2.799h1.866v1.866H13.05V10.26Zm-2.798 7.463H8.387a.933.933 0 0 1-.933-.933v-1.866c0-.515.418-.933.933-.933h1.866c.515 0 .932.418.932.933v1.866a.933.933 0 0 1-.932.933Zm0-2.799H8.387v1.866h1.866v-1.866Zm-6.53 7.463h1.865a.933.933 0 0 0 .933-.933V19.59a.933.933 0 0 0-.933-.933H3.723a.933.933 0 0 0-.933.933v1.865c0 .516.418.933.933.933Zm0-2.798h1.865v1.865H3.723V19.59Zm6.53 2.798H8.387a.933.933 0 0 1-.933-.933V19.59c0-.516.418-.933.933-.933h1.866c.515 0 .932.417.932.933v1.865a.933.933 0 0 1-.932.933Zm0-2.798H8.387v1.865h1.866V19.59Zm-.467 5.597h-.933v.932h.933v-.932Z" fill="#495567"/></svg>