<svg width="26" height="20" fill="none" xmlns="http://www.w3.org/2000/svg"><path d="M11.29 18.342a.486.486 0 0 0-.481.483.486.486 0 0 0 .482.482.485.485 0 0 0 .341-.823.487.487 0 0 0-.341-.142Z" fill="#000"/><path fill-rule="evenodd" clip-rule="evenodd" d="m20.898 10.245-1.124-5.079c.303-.04.57-.195.759-.419.222.14.484.22.765.22h.965a.482.482 0 0 0 .482-.483V2.555a.482.482 0 0 0-.483-.482h-.964c-.29 0-.559.085-.785.232a1.202 1.202 0 0 0-.902-.407h-2.847c-.512 0-.95.32-1.124.771h-1.143c-.692 0-1.254.563-1.254 1.254 0 .692.562 1.254 1.254 1.254h2.483v.972a.482.482 0 1 0 .964 0v-.972h.844L20 10.648l-2.291 4.082c-.25.444-.723.72-1.233.72h-5.72a4.058 4.058 0 0 0-4.024-3.571c-.917 0-1.781.299-2.501.864l-.003.002a4.028 4.028 0 0 0-1.52 2.705h-.991A6.394 6.394 0 0 1 8.1 9.18h3.422c.27 0 .49.22.49.491v4.332c0 .266.216.482.482.482h2.567a2.877 2.877 0 0 0 2.876-2.873l.003-1.603a.482.482 0 0 0-.965-.002l-.002 1.603a1.913 1.913 0 0 1-1.912 1.91h-2.085V9.67c0-.246-.062-.48-.17-.683a1.448 1.448 0 0 0-.722-2.7h-1.76c-.17 0-.332.028-.483.082V2.138c0-.798-.65-1.447-1.447-1.447H5.283A4.54 4.54 0 0 0 .807 4.507a.482.482 0 0 0-.023.146v.008a4.555 4.555 0 0 0-.034.563v2.51a1.45 1.45 0 0 0 1.231 1.43l1.068 1.068A7.331 7.331 0 0 0 .75 15.568v.364c0 .267.216.482.482.482h2.711a.493.493 0 0 0-.01.097c0 .7.26 1.34.686 1.831H1.232a.482.482 0 0 0 0 .965h5.459l.04.002A2.8 2.8 0 0 0 9.53 16.51a.493.493 0 0 0-.01-.096h6.956c.76 0 1.47-.364 1.914-.967h.61a2.794 2.794 0 0 0 .476 2.894H13.22a.482.482 0 0 0 0 .965h8.311l.056.002a2.8 2.8 0 0 0 2.587-3.86h.79a.482.482 0 0 0 .482-.483 4.73 4.73 0 0 0-4.548-4.721ZM10.324 7.25h1.76a.483.483 0 0 1 0 .965h-1.76a.483.483 0 0 1 0-.965ZM1.716 5.165l-.001.06v2.508c0 .266.216.483.482.483h6.198a.483.483 0 0 0 .482-.483V2.138a.483.483 0 0 0-.482-.482H5.283a3.575 3.575 0 0 0-3.41 2.514h5.122a.482.482 0 1 1 0 .965H1.717l-.001.03ZM3.362 9.18h1.103a7.346 7.346 0 0 0-.67.434l-.433-.434Zm3.388 9.163a1.835 1.835 0 0 0 1.814-1.832c0-.033.003-.065.01-.096H4.889c.006.03.01.063.01.096 0 .992.791 1.802 1.776 1.831h.066l.009.001ZM3.68 15.45a3.069 3.069 0 0 1 1.143-1.947c.002 0 .003-.002.005-.003a3.057 3.057 0 0 1 1.903-.656 3.093 3.093 0 0 1 3.05 2.606H3.68Zm18.1-12.413h-.482a.483.483 0 0 0 0 .965h.482v-.965Zm-7.573.886c0-.16.13-.289.29-.289h1.062v.34c0 .081.009.161.024.239h-1.086a.29.29 0 0 1-.29-.29Zm2.557.29h2.848a.24.24 0 0 0 .239-.24v-.871a.24.24 0 0 0-.24-.24h-2.847a.24.24 0 0 0-.24.24v.871c0 .132.108.24.24.24ZM23.42 16.51a1.835 1.835 0 0 1-1.814 1.832h-.074a1.835 1.835 0 0 1-1.438-2.895h2.987c.22.31.34.68.34 1.063Zm-2.629-5.303-1.84 3.276h5.5a3.765 3.765 0 0 0-3.66-3.276Z" fill="#495567"/><path d="M17.462 8.561a.482.482 0 1 0 0-.965h-.002a.482.482 0 1 0 .002.965Z" fill="#000"/></svg>